<svg data-v-fde0c5aa="" xmlns="http://www.w3.org/2000/svg" viewBox="0 0 300 300" class="iconAboveSlogan"><!----><defs data-v-fde0c5aa=""><!----></defs><rect data-v-fde0c5aa="" fill="transparent" x="0" y="0" width="300px" height="300px" class="logo-background-square"></rect><defs data-v-fde0c5aa=""><!----></defs><g data-v-fde0c5aa="" id="f5ad7808-2357-4b32-9891-c8a4db20b652" fill="#000000" transform="matrix(3.249593714012235,0,0,3.249593714012235,18.537682770587203,158.50231642272598)"><path d="M0.45 10.50L2.42 10.50C4.40 10.50 5.40 9.53 5.40 7.49L5.40 0.49L3.37 0.49L3.37 7.49C3.37 8.05 2.94 8.50 2.37 8.50L0.45 8.50L0.45 10.50L0.45 10.50ZM12.45 10.64L12.45 10.64C19.33 10.64 19.33 0.32 12.45 0.32C5.56 0.32 5.56 10.64 12.45 10.64ZM12.45 8.57L12.45 8.57C8.44 8.57 8.44 2.38 12.45 2.38C16.45 2.38 16.45 8.57 12.45 8.57ZM21.49 5.05L21.49 5.05L26.56 10.71L27.09 10.71L27.09 0.50L25.07 0.50L25.07 6.16L20.02 0.28L19.49 0.28L19.49 10.50L21.49 10.50L21.49 5.05ZM28.45 10.50L30.72 10.50L31.11 9.42L34.43 9.42L34.83 10.50L37.09 10.50L32.87 0.13L32.66 0.13L28.45 10.50L28.45 10.50ZM31.84 7.55L32.77 4.94L33.68 7.55L31.84 7.55L31.84 7.55ZM41.48 10.50L41.48 2.49L43.97 2.49L43.97 0.50L36.99 0.50L36.99 2.49L39.48 2.49L39.48 10.50L41.48 10.50L41.48 10.50ZM43.71 10.50L45.98 10.50L46.37 9.42L49.69 9.42L50.09 10.50L52.35 10.50L48.13 0.13L47.92 0.13L43.71 10.50L43.71 10.50ZM47.10 7.55L48.03 4.94L48.94 7.55L47.10 7.55L47.10 7.55ZM55.75 5.05L55.75 5.05L60.82 10.71L61.35 10.71L61.35 0.50L59.33 0.50L59.33 6.16L54.28 0.28L53.75 0.28L53.75 10.50L55.75 10.50L55.75 5.05ZM70.60 10.50L70.60 0.49L68.60 0.49L68.60 4.49L65.60 4.49L65.60 0.49L63.60 0.49L63.60 10.50L65.60 10.50L65.60 6.50L68.60 6.50L68.60 10.50L70.60 10.50L70.60 10.50ZM74.86 5.05L74.86 5.05L79.93 10.71L80.46 10.71L80.46 0.50L78.44 0.50L78.44 6.16L73.39 0.28L72.86 0.28L72.86 10.50L74.86 10.50L74.86 5.05Z"></path></g><defs data-v-fde0c5aa=""><linearGradient data-v-fde0c5aa="" gradientTransform="rotate(25)" id="60633894-9f98-478b-94b5-a183ca8f8706" x1="0%" y1="0%" x2="100%" y2="0%"><stop data-v-fde0c5aa="" offset="0%" stop-color="#2EFF67" stop-opacity="1"></stop><stop data-v-fde0c5aa="" offset="100%" stop-color="#58635B" stop-opacity="1"></stop></linearGradient></defs><g data-v-fde0c5aa="" id="406412ea-9b1c-4993-9e46-4f87b26908a0" stroke="none" fill="url(#60633894-9f98-478b-94b5-a183ca8f8706)" transform="matrix(0.8079758716692379,0,0,0.8079758716692379,123.78062909598553,88.24473552675258)"><path d="M58 49.8l-1.1 1.1 2.4 2.3-2.4 2.4 1.1 1.1 3.5-3.5zM48.3 49.8l-3.4 3.4 3.4 3.5 1.1-1.1-2.4-2.4 2.4-2.3zM50.99 59.334l-1.345-.665 5.678-11.471 1.344.665z"></path><path d="M53.2 41.2c-.9 0-1.7.1-2.6.3-1.9-1.9-4.2-3.2-6.8-4 .5-2.3.3-4.1-.9-5.4-1.5-1.7-4-2-5.7-1.9 1.9-2.1 3.3-4.8 3.4-7.9.9-.8 3.4-3 3.3-5.4-.1-2.4-1.7-2.5-2.1-2.5h-.1l.4-3.6c.2-4.3-1.7-5.9-3.1-6.5 1.4-2 1-3.3 1-3.4l-.3-.9-.8.6c-.9.6-1.8.9-2.7.9-.6 0-1-.2-1-.2C32.5.1 26.8-.2 26.5-.2c-5.9 0-7.7 3-8.1 4.2-5 .6-4.8 5.6-4.7 8v1.1c0 .5 0 1 .1 1.5-.7 0-2 .4-2 2.5-.1 2.4 2.4 4.7 3.3 5.4.1 2.9 1.4 5.5 3.2 7.6-1.7 0-4.4.2-5.9 1.9-1.1 1.3-1.4 3.1-.8 5.5-7 2.3-11.8 9-11.8 16.4v3.2h42c1.6 4.7 6.1 8.1 11.3 8.1 6.6 0 12-5.4 12-12 .1-6.6-5.3-12-11.9-12zm-11.4-8.1c.9 1 1 2.6.3 4.8-.1.2-2.1 4.5-8.1 6.1-.4-1.1-1.2-2-2.3-2.5.9-.5 1.6-1.1 2.2-1.8 2.3-2.7 2.4-6.4 2.4-7.9 1.4-.2 4.2-.2 5.5 1.3zm-8.2 15.3c.7 0 1.2.6 1.2 1.2 0 .7-.6 1.2-1.2 1.2-.7 0-1.3-.6-1.3-1.2.1-.6.6-1.2 1.3-1.2zM27.4 41c-2.1-.2-3.8-1-4.9-2.3-1.7-2-2-4.9-2.1-6.4 2.3 1.8 4.9 2.9 7.4 2.9 2.1 0 4.8-1 7.1-2.8 0 1.6-.4 4.4-2.1 6.4-1.1 1.2-2.8 2-4.9 2.2h-.5zM19 5.4h.6l.1-.6s.7-3.6 6.8-3.6c.1 0 5.6.3 8.1 1.4.1 0 .7.3 1.6.3.7 0 1.4-.1 2-.4-.2.4-.6.9-1.1 1.5L36 5.2l1.6.1c.1 0 3.3.3 3 5.3l-.4 3.6-1.7.7c-.4-.5-1-.7-1.3-.8-.8-.1-1.6-.1-2.6-.1-1.7 0-3.3.2-3.4.2-1.3.2-2.2.6-2.6 1.4 0 .1 0 .1-.1.2h-1.3c0-.1 0-.1-.1-.2-.4-.8-1.3-1.3-2.6-1.4-.1 0-1.7-.2-3.4-.2-1 0-1.9.1-2.5.2-.3.1-.9.3-1.3.8l-2-.8c0-.4-.1-.7-.1-1V12c-.2-3.4 0-6.4 3.8-6.6zm18.5 11.9l-.1.7c-.3 1.8-.4 2.1-1.3 2.3 0 0-1 .2-2.2.2-1.3 0-2.2-.3-2.7-.7-.2-.3-.8-1.4-1.3-2.7 0 0-.2-.5 0-.8.2-.3.7-.5 1.4-.6 0 0 1.6-.2 3.3-.2.9 0 1.7.1 2.2.2.1-.1 1 .1.7 1.6zm-11.8-.1c-.5 1.3-1.1 2.4-1.3 2.6-.5.5-1.4.7-2.7.7-1.1 0-2.1-.2-2.1-.2-.9-.3-1-.6-1.3-2.4l-.1-.7c-.2-1.4.5-1.6.7-1.7.5-.1 1.3-.2 2.2-.2 1.6 0 3.2.2 3.2.2.8.1 1.3.3 1.4.6.3.5.1 1 0 1.1zm-9.1 4.6l-.3-.2c-.9-.7-3.1-2.7-3-4.4 0-1.1.4-1.1.7-1.1.4 0 .8-.2 1-.4l1.7.7c-.1.4-.1.8 0 1.3l.1.7c.3 1.8.5 3 2.4 3.6 0 0 1.2.2 2.5.2 1.8 0 3.1-.4 3.9-1.3l.1-.1c0-.1.9-1.4 1.5-2.9l.2-.6h1.1c.1.3.2.5.2.5.6 1.6 1.5 2.9 1.5 3l.1.1c.8.8 2.1 1.3 3.9 1.3 1.3 0 2.4-.2 2.5-.3 1.9-.6 2.1-1.7 2.4-3.5l.1-.7c.1-.5.1-.9 0-1.3l1.6-.6c.2.1.4.2.6.2h.6c.2 0 .6 0 .6 1.1 0 1.7-2.2 3.8-3 4.4l-.3.2v.4c0 3.3-1.8 6.4-4.2 8.5-2.2 1.9-4.9 3.1-7 3.1-5 0-11.1-5.1-11.2-11.4l-.3-.5zm-3 11.3c1.3-1.5 4.1-1.5 5.4-1.4 0 1.6.1 5.3 2.4 7.9.7.9 1.6 1.5 2.7 2-.9.6-1.6 1.5-2 2.5-6.6-1.5-8.8-6.1-8.8-6.2-.7-2.2-.6-3.8.3-4.8zm9 17.1c.7 0 1.3.6 1.3 1.2 0 .7-.6 1.2-1.3 1.2-.7 0-1.3-.6-1.3-1.2.1-.7.6-1.2 1.3-1.2zM1.3 55.7V54c0-6.8 4.4-12.8 10.8-15 .8 1.4 3.5 5.3 9.7 6.7v3.1c-1.2.3-2 1.4-2 2.6 0 1.5 1.2 2.7 2.8 2.7s2.8-1.2 2.8-2.7c0-1.3-.8-2.3-2-2.6v-3.3c0-1.7 1.3-3 3-3H30c1.7 0 3 1.3 3 3V47c-1.2.3-2 1.4-2 2.6 0 1.5 1.2 2.7 2.7 2.7 1.5 0 2.7-1.2 2.7-2.7 0-1.3-.8-2.3-2-2.6v-1.5c5.7-1.5 8.2-5.2 8.9-6.6 2.1.6 4 1.7 5.6 3.1-4.5 1.7-7.8 6.1-7.8 11.2 0 .8.1 1.7.3 2.4H1.3zm51.9 8c-5.8 0-10.5-4.7-10.5-10.5s4.7-10.5 10.5-10.5 10.5 4.7 10.5 10.5S59 63.7 53.2 63.7z"></path></g><defs data-v-fde0c5aa=""><!----></defs><g data-v-fde0c5aa="" id="d344ec06-bfe6-4fcb-be7e-b8035101f8e5" fill="#000000" transform="matrix(0.5527211075597614,0,0,0.5527211075597614,51.925170069222474,200.6910939870774)"><path d="M6.62 14.38L6.62 14.38L6.62 14.38Q6.97 14.98 6.97 15.54L6.97 15.54L6.97 15.54Q6.97 15.67 6.95 15.77L6.95 15.77L6.95 15.77Q6.93 15.88 6.90 15.99L6.90 15.99L6.90 15.99Q6.66 15.96 6.41 15.95L6.41 15.95L6.41 15.95Q6.15 15.93 5.87 15.93L5.87 15.93L5.87 15.93Q5.53 15.93 5.19 15.95L5.19 15.95L5.19 15.95Q4.84 15.97 4.42 16.02L4.42 16.02L4.42 16.02Q4.00 16.06 3.49 16.13L3.49 16.13L3.49 16.13Q2.97 16.20 2.28 16.31L2.28 16.31L2.28 16.31Q1.96 16.20 1.64 15.87L1.64 15.87L1.64 15.87Q1.32 15.54 1.04 15.08L1.04 15.08L1.04 15.08Q1.18 14.77 1.39 14.31L1.39 14.31L1.39 14.31Q1.60 13.86 1.88 13.21L1.88 13.21L1.88 13.21Q2.16 12.56 2.50 11.68L2.50 11.68L2.50 11.68Q2.84 10.81 3.23 9.66L3.23 9.66L3.23 9.66Q3.49 8.90 3.67 8.33L3.67 8.33L3.67 8.33Q3.85 7.76 4.00 7.22L4.00 7.22L4.00 7.22Q4.14 6.68 4.28 6.09L4.28 6.09L4.28 6.09Q4.42 5.50 4.59 4.73L4.59 4.73L4.59 4.73Q5.15 4.84 5.57 5.14L5.57 5.14L5.57 5.14Q5.98 5.45 6.36 6.01L6.36 6.01L6.36 6.01Q6.24 6.19 6.06 6.59L6.06 6.59L6.06 6.59Q5.88 7 5.63 7.58L5.63 7.58L5.63 7.58Q5.39 8.16 5.10 8.90L5.10 8.90L5.10 8.90Q4.80 9.63 4.48 10.47L4.48 10.47L4.48 10.47Q4.17 11.30 3.88 12.03L3.88 12.03L3.88 12.03Q3.58 12.75 3.35 13.34L3.35 13.34L3.35 13.34Q3.12 13.93 2.98 14.35L2.98 14.35L2.98 14.35Q2.84 14.77 2.84 14.98L2.84 14.98L2.84 14.98Q3.07 14.97 3.25 14.95L3.25 14.95L3.25 14.95Q3.43 14.94 3.63 14.90L3.63 14.90L3.63 14.90Q3.82 14.87 4.05 14.82L4.05 14.82L4.05 14.82Q4.28 14.77 4.61 14.69L4.61 14.69L4.61 14.69Q4.89 14.62 5.12 14.57L5.12 14.57L5.12 14.57Q5.36 14.52 5.59 14.48L5.59 14.48L5.59 14.48Q5.82 14.45 6.07 14.43L6.07 14.43L6.07 14.43Q6.31 14.41 6.62 14.38ZM19.74 9.52L19.74 9.52L19.74 9.52Q19.88 9.52 20.07 9.57L20.07 9.57L20.07 9.57Q20.26 9.62 20.41 9.70L20.41 9.70L20.41 9.70Q20.57 9.77 20.67 9.86L20.67 9.86L20.67 9.86Q20.78 9.94 20.78 10.01L20.78 10.01L20.78 10.01Q20.50 10.60 20.26 11.19L20.26 11.19L20.26 11.19Q20.02 11.79 19.85 12.33L19.85 12.33L19.85 12.33Q19.68 12.88 19.59 13.36L19.59 13.36L19.59 13.36Q19.50 13.83 19.50 14.18L19.50 14.18L19.50 14.18Q19.50 14.57 19.59 14.83L19.59 14.83L19.59 14.83Q19.67 15.09 19.87 15.20L19.87 15.20L19.87 15.20Q19.70 15.32 19.43 15.39L19.43 15.39L19.43 15.39Q19.17 15.46 18.96 15.46L18.96 15.46L18.96 15.46Q18.20 15.46 18.20 14.42L18.20 14.42L18.20 14.42Q18.20 13.62 18.73 12.24L18.73 12.24L18.73 12.24Q18.45 12.88 18.09 13.45L18.09 13.45L18.09 13.45Q17.72 14.01 17.35 14.45L17.35 14.45L17.35 14.45Q16.97 14.88 16.58 15.15L16.58 15.15L16.58 15.15Q16.20 15.43 15.88 15.48L15.88 15.48L15.88 15.48Q15.36 15.46 15.04 14.99L15.04 14.99L15.04 14.99Q14.71 14.52 14.71 13.79L14.71 13.79L14.71 13.79Q14.71 13.01 15.05 12.14L15.05 12.14L15.05 12.14Q15.39 11.27 15.91 10.53L15.91 10.53L15.91 10.53Q16.44 9.79 17.05 9.29L17.05 9.29L17.05 9.29Q17.67 8.79 18.24 8.76L18.24 8.76L18.24 8.76Q18.38 8.81 18.56 8.93L18.56 8.93L18.56 8.93Q18.73 9.06 18.89 9.23L18.89 9.23L18.89 9.23Q19.05 9.39 19.17 9.57L19.17 9.57L19.17 9.57Q19.28 9.74 19.29 9.87L19.29 9.87L19.29 9.87Q18.73 9.95 18.14 10.42L18.14 10.42L18.14 10.42Q17.54 10.88 17.06 11.53L17.06 11.53L17.06 11.53Q16.58 12.18 16.27 12.92L16.27 12.92L16.27 12.92Q15.96 13.66 15.96 14.31L15.96 14.31L15.96 14.31Q15.96 14.57 16.16 14.64L16.16 14.64L16.16 14.64Q16.56 14.56 17.09 13.95L17.09 13.95L17.09 13.95Q17.63 13.34 18.38 12.07L18.38 12.07L18.38 12.07Q18.52 11.82 18.70 11.51L18.70 11.51L18.70 11.51Q18.87 11.20 19.05 10.86L19.05 10.86L19.05 10.86Q19.24 10.53 19.41 10.18L19.41 10.18L19.41 10.18Q19.59 9.84 19.74 9.52ZM37.80 19.81L37.80 19.81L37.80 19.81Q37.60 19.75 37.58 19.39L37.58 19.39L37.58 19.39Q37.52 19.21 37.50 18.96L37.50 18.96L37.50 18.96Q37.48 18.70 37.48 18.38L37.48 18.38L37.48 18.38Q37.48 18.09 37.58 17.58L37.58 17.58L37.58 17.58Q37.67 17.07 37.85 16.42L37.85 16.42L37.85 16.42Q38.02 15.78 38.28 15.03L38.28 15.03L38.28 15.03Q38.53 14.28 38.84 13.51L38.84 13.51L38.84 13.51Q39.21 12.54 39.49 11.84L39.49 11.84L39.49 11.84Q39.77 11.13 39.96 10.61L39.96 10.61L39.96 10.61Q40.15 10.09 40.27 9.76L40.27 9.76L40.27 9.76Q40.39 9.42 40.46 9.18L40.46 9.18L40.46 9.18Q40.52 9.02 40.63 8.78L40.63 8.78L40.63 8.78Q40.74 8.54 40.89 8.29L40.89 8.29L40.89 8.29Q41.03 8.05 41.19 7.83L41.19 7.83L41.19 7.83Q41.34 7.62 41.47 7.50L41.47 7.50L41.47 7.50Q41.96 7.57 42.39 7.76L42.39 7.76L42.39 7.76Q42.83 7.94 42.92 8.11L42.92 8.11L42.92 8.11Q42.73 8.29 42.48 8.67L42.48 8.67L42.48 8.67Q42.22 9.06 41.99 9.51L41.99 9.51L41.99 9.51Q41.75 9.97 41.55 10.44L41.55 10.44L41.55 10.44Q41.36 10.92 41.26 11.28L41.26 11.28L41.26 11.28Q41.40 11.05 41.62 10.77L41.62 10.77L41.62 10.77Q41.85 10.49 42.31 10.00L42.31 10.00L42.31 10.00Q42.83 9.46 43.28 9.18L43.28 9.18L43.28 9.18Q43.74 8.89 44.07 8.89L44.07 8.89L44.07 8.89Q44.60 8.89 44.95 9.18L44.95 9.18L44.95 9.18Q45.29 9.48 45.29 9.94L45.29 9.94L45.29 9.94Q45.29 10.95 44.95 11.94L44.95 11.94L44.95 11.94Q44.62 12.92 43.99 13.72L43.99 13.72L43.99 13.72Q43.75 14.03 43.43 14.31L43.43 14.31L43.43 14.31Q43.11 14.59 42.76 14.80L42.76 14.80L42.76 14.80Q42.41 15.02 42.07 15.15L42.07 15.15L42.07 15.15Q41.73 15.27 41.47 15.27L41.47 15.27L41.47 15.27Q41.22 15.27 41.03 15.17L41.03 15.17L41.03 15.17Q40.84 15.06 40.77 14.91L40.77 14.91L40.77 14.91Q41.31 14.59 41.83 14.01L41.83 14.01L41.83 14.01Q42.35 13.44 42.79 12.69L42.79 12.69L42.79 12.69Q43.23 11.94 43.56 11.07L43.56 11.07L43.56 11.07Q43.89 10.21 44.06 9.31L44.06 9.31L44.06 9.31Q43.53 9.59 43.10 9.92L43.10 9.92L43.10 9.92Q42.67 10.25 42.25 10.78L42.25 10.78L42.25 10.78Q41.75 11.40 41.45 11.77L41.45 11.77L41.45 11.77Q41.16 12.15 40.97 12.42L40.97 12.42L40.97 12.42Q40.78 12.68 40.66 12.91L40.66 12.91L40.66 12.91Q40.54 13.15 40.40 13.48L40.40 13.48L40.40 13.48Q40.21 13.93 39.95 14.67L39.95 14.67L39.95 14.67Q39.69 15.40 39.42 16.31L39.42 16.31L39.42 16.31Q39.14 17.22 38.87 18.25L38.87 18.25L38.87 18.25Q38.60 19.28 38.35 20.30L38.35 20.30L38.35 20.30Q38.19 20.27 38.08 20.08L38.08 20.08L38.08 20.08Q37.97 19.95 37.92 19.89L37.92 19.89L37.92 19.89Q37.87 19.84 37.80 19.81ZM52.46 14.90L52.46 14.90L52.46 14.90Q52.53 14.49 52.70 13.82L52.70 13.82L52.70 13.82Q52.88 13.16 53.12 12.41L53.12 12.41L53.12 12.41Q53.35 11.66 53.62 10.91L53.62 10.91L53.62 10.91Q53.89 10.15 54.14 9.55L54.14 9.55L54.14 9.55Q54.32 9.11 54.46 8.87L54.46 8.87L54.46 8.87Q54.60 8.62 54.77 8.46L54.77 8.46L54.77 8.46Q54.96 8.48 55.17 8.55L55.17 8.55L55.17 8.55Q55.38 8.62 55.58 8.72L55.58 8.72L55.58 8.72Q55.78 8.82 55.93 8.93L55.93 8.93L55.93 8.93Q56.08 9.03 56.17 9.13L56.17 9.13L56.17 9.13Q55.79 9.58 55.50 10.15L55.50 10.15L55.50 10.15Q55.22 10.72 54.92 11.62L54.92 11.62L54.92 11.62Q55.68 10.95 56.26 10.33L56.26 10.33L56.26 10.33Q56.84 9.72 57.34 8.96L57.34 8.96L57.34 8.96Q57.43 8.89 57.64 8.89L57.64 8.89L57.64 8.89Q57.83 8.89 58.02 8.95L58.02 8.95L58.02 8.95Q58.20 9.02 58.27 9.13L58.27 9.13L58.27 9.13Q58.02 9.80 58.02 10.46L58.02 10.46L58.02 10.46Q58.02 11.07 58.20 11.38L58.20 11.38L58.20 11.38Q58.18 11.47 58.01 11.70L58.01 11.70L58.01 11.70Q57.83 11.94 57.62 12.15L57.62 12.15L57.62 12.15Q57.25 11.96 56.95 11.61L56.95 11.61L56.95 11.61Q56.66 11.27 56.52 10.86L56.52 10.86L56.52 10.86Q55.86 11.33 55.40 11.77L55.40 11.77L55.40 11.77Q54.94 12.21 54.61 12.75L54.61 12.75L54.61 12.75Q54.28 13.29 54.05 13.99L54.05 13.99L54.05 13.99Q53.82 14.69 53.61 15.65L53.61 15.65L53.61 15.65Q53.48 15.64 53.30 15.56L53.30 15.56L53.30 15.56Q53.13 15.48 52.95 15.37L52.95 15.37L52.95 15.37Q52.78 15.26 52.64 15.13L52.64 15.13L52.64 15.13Q52.50 15.01 52.46 14.90ZM67.09 15.67L67.09 15.67L67.09 15.67Q66.29 15.58 65.81 14.97L65.81 14.97L65.81 14.97Q65.34 14.35 65.34 13.40L65.34 13.40L65.34 13.40Q65.34 12.84 65.51 12.24L65.51 12.24L65.51 12.24Q65.67 11.63 65.98 11.07L65.98 11.07L65.98 11.07Q66.29 10.50 66.71 10.00L66.71 10.00L66.71 10.00Q67.13 9.49 67.62 9.13L67.62 9.13L67.62 9.13Q68.39 8.55 69.06 8.55L69.06 8.55L69.06 8.55Q69.51 8.79 69.94 9.55L69.94 9.55L69.94 9.55Q70.01 9.55 70.07 9.54L70.07 9.54L70.07 9.54Q70.13 9.53 70.20 9.53L70.20 9.53L70.20 9.53Q70.94 9.53 70.94 10.85L70.94 10.85L70.94 10.85Q70.94 11.73 70.65 12.52L70.65 12.52L70.65 12.52Q70.36 13.31 69.85 13.96L69.85 13.96L69.85 13.96Q69.34 14.60 68.64 15.04L68.64 15.04L68.64 15.04Q67.93 15.48 67.09 15.67ZM67.80 11.26L67.80 11.26L67.80 11.26Q67.56 11.58 67.35 11.96L67.35 11.96L67.35 11.96Q67.14 12.33 66.99 12.72L66.99 12.72L66.99 12.72Q66.84 13.10 66.75 13.46L66.75 13.46L66.75 13.46Q66.67 13.82 66.67 14.10L66.67 14.10L66.67 14.10Q66.67 14.43 66.78 14.74L66.78 14.74L66.78 14.74Q66.89 15.05 67.03 15.09L67.03 15.09L67.03 15.09Q67.66 14.95 68.19 14.57L68.19 14.57L68.19 14.57Q68.71 14.18 69.10 13.61L69.10 13.61L69.10 13.61Q69.48 13.03 69.70 12.31L69.70 12.31L69.70 12.31Q69.92 11.58 69.92 10.75L69.92 10.75L69.92 10.75Q69.92 10.39 69.87 10.18L69.87 10.18L69.87 10.18Q69.83 9.97 69.73 9.81L69.73 9.81L69.73 9.81Q69.12 10.00 68.64 10.40L68.64 10.40L68.64 10.40Q68.15 10.81 67.80 11.26ZM75.78 19.35L75.78 19.35L75.78 19.35Q75.78 19.26 75.84 19.19L75.84 19.19L75.84 19.19Q75.89 19.12 75.96 19.05L75.96 19.05L75.96 19.05Q76.13 19.21 76.25 19.29L76.25 19.29L76.25 19.29Q76.37 19.38 76.48 19.43L76.48 19.43L76.48 19.43Q76.58 19.49 76.69 19.50L76.69 19.50L76.69 19.50Q76.80 19.52 76.96 19.52L76.96 19.52L76.96 19.52Q77.69 19.52 78.34 19.13L78.34 19.13L78.34 19.13Q79.00 18.75 79.58 18.02L79.58 18.02L79.58 18.02Q80.16 17.29 80.64 16.24L80.64 16.24L80.64 16.24Q81.12 15.19 81.48 13.86L81.48 13.86L81.48 13.86Q81.31 14.03 81.07 14.23L81.07 14.23L81.07 14.23Q80.82 14.43 80.56 14.62L80.56 14.62L80.56 14.62Q80.29 14.80 80.03 14.95L80.03 14.95L80.03 14.95Q79.77 15.11 79.59 15.18L79.59 15.18L79.59 15.18Q79.35 15.13 79.15 14.97L79.15 14.97L79.15 14.97Q78.95 14.81 78.79 14.57L78.79 14.57L78.79 14.57Q78.64 14.34 78.55 14.04L78.55 14.04L78.55 14.04Q78.47 13.73 78.47 13.40L78.47 13.40L78.47 13.40Q78.47 12.85 78.67 12.28L78.67 12.28L78.67 12.28Q78.88 11.70 79.21 11.15L79.21 11.15L79.21 11.15Q79.55 10.60 80.00 10.11L80.00 10.11L80.00 10.11Q80.46 9.62 80.97 9.25L80.97 9.25L80.97 9.25Q81.48 8.89 82.01 8.67L82.01 8.67L82.01 8.67Q82.53 8.46 83.03 8.46L83.03 8.46L83.03 8.46Q83.52 8.46 83.77 8.66L83.77 8.66L83.77 8.66Q84.01 8.86 84.13 9.35L84.13 9.35L84.13 9.35Q83.97 9.27 83.73 9.27L83.73 9.27L83.73 9.27Q83.40 9.27 82.96 9.53L82.96 9.53L82.96 9.53Q82.52 9.80 82.06 10.23L82.06 10.23L82.06 10.23Q81.61 10.65 81.16 11.21L81.16 11.21L81.16 11.21Q80.71 11.76 80.37 12.33L80.37 12.33L80.37 12.33Q80.02 12.91 79.81 13.45L79.81 13.45L79.81 13.45Q79.59 14 79.59 14.43L79.59 14.43L79.59 14.43Q79.59 14.53 79.60 14.55L79.60 14.55L79.60 14.55Q79.62 14.57 79.65 14.57L79.65 14.57L79.65 14.57Q79.77 14.57 79.99 14.43L79.99 14.43L79.99 14.43Q80.21 14.29 80.48 14.08L80.48 14.08L80.48 14.08Q80.75 13.86 81.05 13.57L81.05 13.57L81.05 13.57Q81.34 13.29 81.61 12.99L81.61 12.99L81.61 12.99Q82.21 12.32 82.71 11.49L82.71 11.49L82.71 11.49Q83.20 10.65 83.50 9.87L83.50 9.87L83.50 9.87Q83.87 9.90 84.17 10.00L84.17 10.00L84.17 10.00Q84.46 10.09 84.57 10.21L84.57 10.21L84.57 10.21Q84.10 11.30 83.81 12.04L83.81 12.04L83.81 12.04Q83.52 12.78 83.31 13.36L83.31 13.36L83.31 13.36Q82.94 14.36 82.61 15.20L82.61 15.20L82.61 15.20Q82.28 16.03 81.94 16.74L81.94 16.74L81.94 16.74Q81.59 17.44 81.19 18.05L81.19 18.05L81.19 18.05Q80.79 18.66 80.29 19.22L80.29 19.22L80.29 19.22Q80.05 19.49 79.75 19.69L79.75 19.69L79.75 19.69Q79.45 19.89 79.14 20.03L79.14 20.03L79.14 20.03Q78.82 20.17 78.52 20.24L78.52 20.24L78.52 20.24Q78.22 20.31 77.97 20.31L77.97 20.31L77.97 20.31Q77.63 20.31 77.28 20.24L77.28 20.24L77.28 20.24Q76.93 20.16 76.63 20.03L76.63 20.03L76.63 20.03Q76.33 19.89 76.10 19.72L76.10 19.72L76.10 19.72Q75.88 19.54 75.78 19.35ZM91.57 14.90L91.57 14.90L91.57 14.90Q91.64 14.49 91.82 13.82L91.82 13.82L91.82 13.82Q91.99 13.16 92.23 12.41L92.23 12.41L92.23 12.41Q92.47 11.66 92.74 10.91L92.74 10.91L92.74 10.91Q93.00 10.15 93.25 9.55L93.25 9.55L93.25 9.55Q93.44 9.11 93.58 8.87L93.58 8.87L93.58 8.87Q93.72 8.62 93.88 8.46L93.88 8.46L93.88 8.46Q94.08 8.48 94.29 8.55L94.29 8.55L94.29 8.55Q94.50 8.62 94.70 8.72L94.70 8.72L94.70 8.72Q94.89 8.82 95.05 8.93L95.05 8.93L95.05 8.93Q95.20 9.03 95.28 9.13L95.28 9.13L95.28 9.13Q94.91 9.58 94.62 10.15L94.62 10.15L94.62 10.15Q94.33 10.72 94.04 11.62L94.04 11.62L94.04 11.62Q94.79 10.95 95.38 10.33L95.38 10.33L95.38 10.33Q95.96 9.72 96.46 8.96L96.46 8.96L96.46 8.96Q96.54 8.89 96.75 8.89L96.75 8.89L96.75 8.89Q96.95 8.89 97.13 8.95L97.13 8.95L97.13 8.95Q97.31 9.02 97.38 9.13L97.38 9.13L97.38 9.13Q97.13 9.80 97.13 10.46L97.13 10.46L97.13 10.46Q97.13 11.07 97.31 11.38L97.31 11.38L97.31 11.38Q97.30 11.47 97.13 11.70L97.13 11.70L97.13 11.70Q96.95 11.94 96.74 12.15L96.74 12.15L96.74 12.15Q96.36 11.96 96.07 11.61L96.07 11.61L96.07 11.61Q95.77 11.27 95.63 10.86L95.63 10.86L95.63 10.86Q94.98 11.33 94.51 11.77L94.51 11.77L94.51 11.77Q94.05 12.21 93.72 12.75L93.72 12.75L93.72 12.75Q93.39 13.29 93.16 13.99L93.16 13.99L93.16 13.99Q92.93 14.69 92.72 15.65L92.72 15.65L92.72 15.65Q92.60 15.64 92.42 15.56L92.42 15.56L92.42 15.56Q92.25 15.48 92.07 15.37L92.07 15.37L92.07 15.37Q91.90 15.26 91.76 15.13L91.76 15.13L91.76 15.13Q91.62 15.01 91.57 14.90ZM109.38 9.52L109.38 9.52L109.38 9.52Q109.52 9.52 109.71 9.57L109.71 9.57L109.71 9.57Q109.90 9.62 110.05 9.70L110.05 9.70L110.05 9.70Q110.21 9.77 110.31 9.86L110.31 9.86L110.31 9.86Q110.42 9.94 110.42 10.01L110.42 10.01L110.42 10.01Q110.14 10.60 109.90 11.19L109.90 11.19L109.90 11.19Q109.66 11.79 109.49 12.33L109.49 12.33L109.49 12.33Q109.33 12.88 109.23 13.36L109.23 13.36L109.23 13.36Q109.14 13.83 109.14 14.18L109.14 14.18L109.14 14.18Q109.14 14.57 109.23 14.83L109.23 14.83L109.23 14.83Q109.31 15.09 109.51 15.20L109.51 15.20L109.51 15.20Q109.34 15.32 109.07 15.39L109.07 15.39L109.07 15.39Q108.81 15.46 108.60 15.46L108.60 15.46L108.60 15.46Q107.84 15.46 107.84 14.42L107.84 14.42L107.84 14.42Q107.84 13.62 108.37 12.24L108.37 12.24L108.37 12.24Q108.09 12.88 107.73 13.45L107.73 13.45L107.73 13.45Q107.37 14.01 106.99 14.45L106.99 14.45L106.99 14.45Q106.61 14.88 106.23 15.15L106.23 15.15L106.23 15.15Q105.84 15.43 105.52 15.48L105.52 15.48L105.52 15.48Q105 15.46 104.68 14.99L104.68 14.99L104.68 14.99Q104.36 14.52 104.36 13.79L104.36 13.79L104.36 13.79Q104.36 13.01 104.69 12.14L104.69 12.14L104.69 12.14Q105.03 11.27 105.55 10.53L105.55 10.53L105.55 10.53Q106.08 9.79 106.69 9.29L106.69 9.29L106.69 9.29Q107.31 8.79 107.88 8.76L107.88 8.76L107.88 8.76Q108.02 8.81 108.20 8.93L108.20 8.93L108.20 8.93Q108.37 9.06 108.53 9.23L108.53 9.23L108.53 9.23Q108.70 9.39 108.81 9.57L108.81 9.57L108.81 9.57Q108.92 9.74 108.93 9.87L108.93 9.87L108.93 9.87Q108.37 9.95 107.78 10.42L107.78 10.42L107.78 10.42Q107.18 10.88 106.70 11.53L106.70 11.53L106.70 11.53Q106.22 12.18 105.91 12.92L105.91 12.92L105.91 12.92Q105.60 13.66 105.60 14.31L105.60 14.31L105.60 14.31Q105.60 14.57 105.80 14.64L105.80 14.64L105.80 14.64Q106.20 14.56 106.74 13.95L106.74 13.95L106.74 13.95Q107.27 13.34 108.02 12.07L108.02 12.07L108.02 12.07Q108.16 11.82 108.34 11.51L108.34 11.51L108.34 11.51Q108.51 11.20 108.70 10.86L108.70 10.86L108.70 10.86Q108.88 10.53 109.05 10.18L109.05 10.18L109.05 10.18Q109.23 9.84 109.38 9.52ZM126.22 10.88L126.22 10.88L126.22 10.88Q126 10.89 125.68 11.16L125.68 11.16L125.68 11.16Q125.36 11.44 124.98 11.87L124.98 11.87L124.98 11.87Q124.61 12.29 124.22 12.81L124.22 12.81L124.22 12.81Q123.82 13.33 123.45 13.84L123.45 13.84L123.45 13.84Q123.07 14.35 122.75 14.80L122.75 14.80L122.75 14.80Q122.43 15.25 122.21 15.51L122.21 15.51L122.21 15.51Q121.90 15.39 121.67 15.14L121.67 15.14L121.67 15.14Q121.45 14.90 121.35 14.53L121.35 14.53L121.35 14.53Q121.42 14.10 121.55 13.63L121.55 13.63L121.55 13.63Q121.67 13.16 121.88 12.66L121.88 12.66L121.88 12.66Q122.08 12.15 122.38 11.60L122.38 11.60L122.38 11.60Q122.68 11.05 123.12 10.43L123.12 10.43L123.12 10.43Q122.91 10.44 122.54 10.73L122.54 10.73L122.54 10.73Q122.18 11.02 121.76 11.47L121.76 11.47L121.76 11.47Q121.34 11.93 120.89 12.50L120.89 12.50L120.89 12.50Q120.44 13.06 120.05 13.61L120.05 13.61L120.05 13.61Q119.53 14.34 119.19 14.88L119.19 14.88L119.19 14.88Q118.85 15.43 118.69 15.53L118.69 15.53L118.69 15.53Q118.33 15.26 118.19 14.95L118.19 14.95L118.19 14.95Q118.05 14.64 117.98 14.27L117.98 14.27L117.98 14.27Q117.99 13.93 118.08 13.43L118.08 13.43L118.08 13.43Q118.17 12.92 118.34 12.39L118.34 12.39L118.34 12.39Q118.66 11.37 119.17 10.36L119.17 10.36L119.17 10.36Q119.69 9.35 120.16 8.51L120.16 8.51L120.16 8.51Q120.55 8.60 120.87 8.78L120.87 8.78L120.87 8.78Q121.18 8.96 121.53 9.31L121.53 9.31L121.53 9.31Q121.39 9.74 121.10 10.23L121.10 10.23L121.10 10.23Q120.81 10.71 120.48 11.24L120.48 11.24L120.48 11.24Q120.16 11.77 119.90 12.33L119.90 12.33L119.90 12.33Q119.63 12.89 119.55 13.47L119.55 13.47L119.55 13.47Q119.94 12.91 120.48 12.18L120.48 12.18L120.48 12.18Q121.02 11.45 121.58 10.81L121.58 10.81L121.58 10.81Q122.15 10.16 122.71 9.72L122.71 9.72L122.71 9.72Q123.27 9.27 123.72 9.27L123.72 9.27L123.72 9.27Q123.89 9.27 124.08 9.32L124.08 9.32L124.08 9.32Q124.28 9.38 124.45 9.46L124.45 9.46L124.45 9.46Q124.61 9.55 124.73 9.63L124.73 9.63L124.73 9.63Q124.84 9.70 124.85 9.74L124.85 9.74L124.85 9.74Q124.78 10.02 124.52 10.51L124.52 10.51L124.52 10.51Q124.26 10.99 123.97 11.52L123.97 11.52L123.97 11.52Q123.68 12.05 123.42 12.55L123.42 12.55L123.42 12.55Q123.17 13.05 123.13 13.34L123.13 13.34L123.13 13.34Q123.82 12.40 124.42 11.64L124.42 11.64L124.42 11.64Q125.02 10.88 125.55 10.33L125.55 10.33L125.55 10.33Q126.08 9.79 126.54 9.49L126.54 9.49L126.54 9.49Q126.99 9.20 127.40 9.20L127.40 9.20L127.40 9.20Q127.68 9.20 127.92 9.34L127.92 9.34L127.92 9.34Q128.17 9.49 128.27 9.77L128.27 9.77L128.27 9.77Q128.14 10.19 127.86 10.78L127.86 10.78L127.86 10.78Q127.57 11.37 127.27 12.02L127.27 12.02L127.27 12.02Q126.98 12.67 126.75 13.30L126.75 13.30L126.75 13.30Q126.52 13.93 126.52 14.43L126.52 14.43L126.52 14.43Q126.52 14.73 126.60 14.82L126.60 14.82L126.60 14.82Q126.69 14.91 126.84 14.91L126.84 14.91L126.84 14.91Q127.01 14.91 127.16 14.85L127.16 14.85L127.16 14.85Q127.30 14.78 127.37 14.78L127.37 14.78L127.37 14.78Q127.46 14.84 127.47 14.92L127.47 14.92L127.47 14.92Q127.48 15.01 127.48 15.08L127.48 15.08L127.48 15.08Q127.20 15.30 126.91 15.45L126.91 15.45L126.91 15.45Q126.62 15.60 126.25 15.60L126.25 15.60L126.25 15.60Q125.92 15.60 125.70 15.48L125.70 15.48L125.70 15.48Q125.48 15.37 125.34 15.18L125.34 15.18L125.34 15.18Q125.20 14.98 125.15 14.73L125.15 14.73L125.15 14.73Q125.09 14.48 125.09 14.18L125.09 14.18L125.09 14.18Q125.09 13.71 125.22 13.24L125.22 13.24L125.22 13.24Q125.34 12.77 125.52 12.34L125.52 12.34L125.52 12.34Q125.69 11.91 125.89 11.54L125.89 11.54L125.89 11.54Q126.08 11.17 126.22 10.88ZM140.67 9.52L140.67 9.52L140.67 9.52Q140.81 9.52 141.00 9.57L141.00 9.57L141.00 9.57Q141.19 9.62 141.34 9.70L141.34 9.70L141.34 9.70Q141.50 9.77 141.60 9.86L141.60 9.86L141.60 9.86Q141.71 9.94 141.71 10.01L141.71 10.01L141.71 10.01Q141.43 10.60 141.19 11.19L141.19 11.19L141.19 11.19Q140.95 11.79 140.78 12.33L140.78 12.33L140.78 12.33Q140.62 12.88 140.53 13.36L140.53 13.36L140.53 13.36Q140.43 13.83 140.43 14.18L140.43 14.18L140.43 14.18Q140.43 14.57 140.52 14.83L140.52 14.83L140.52 14.83Q140.60 15.09 140.80 15.20L140.80 15.20L140.80 15.20Q140.63 15.32 140.36 15.39L140.36 15.39L140.36 15.39Q140.10 15.46 139.89 15.46L139.89 15.46L139.89 15.46Q139.13 15.46 139.13 14.42L139.13 14.42L139.13 14.42Q139.13 13.62 139.66 12.24L139.66 12.24L139.66 12.24Q139.38 12.88 139.02 13.45L139.02 13.45L139.02 13.45Q138.66 14.01 138.28 14.45L138.28 14.45L138.28 14.45Q137.90 14.88 137.52 15.15L137.52 15.15L137.52 15.15Q137.13 15.43 136.81 15.48L136.81 15.48L136.81 15.48Q136.29 15.46 135.97 14.99L135.97 14.99L135.97 14.99Q135.65 14.52 135.65 13.79L135.65 13.79L135.65 13.79Q135.65 13.01 135.98 12.14L135.98 12.14L135.98 12.14Q136.32 11.27 136.84 10.53L136.84 10.53L136.84 10.53Q137.37 9.79 137.98 9.29L137.98 9.29L137.98 9.29Q138.60 8.79 139.17 8.76L139.17 8.76L139.17 8.76Q139.31 8.81 139.49 8.93L139.49 8.93L139.49 8.93Q139.66 9.06 139.83 9.23L139.83 9.23L139.83 9.23Q139.99 9.39 140.10 9.57L140.10 9.57L140.10 9.57Q140.21 9.74 140.22 9.87L140.22 9.87L140.22 9.87Q139.66 9.95 139.07 10.42L139.07 10.42L139.07 10.42Q138.47 10.88 137.99 11.53L137.99 11.53L137.99 11.53Q137.51 12.18 137.20 12.92L137.20 12.92L137.20 12.92Q136.89 13.66 136.89 14.31L136.89 14.31L136.89 14.31Q136.89 14.57 137.09 14.64L137.09 14.64L137.09 14.64Q137.49 14.56 138.03 13.95L138.03 13.95L138.03 13.95Q138.56 13.34 139.31 12.07L139.31 12.07L139.31 12.07Q139.45 11.82 139.63 11.51L139.63 11.51L139.63 11.51Q139.80 11.20 139.99 10.86L139.99 10.86L139.99 10.86Q140.17 10.53 140.34 10.18L140.34 10.18L140.34 10.18Q140.52 9.84 140.67 9.52ZM149.39 12.71L149.39 12.71L149.39 12.71Q149.39 11.91 149.72 11.16L149.72 11.16L149.72 11.16Q150.05 10.42 150.59 9.84L150.59 9.84L150.59 9.84Q151.13 9.25 151.82 8.90L151.82 8.90L151.82 8.90Q152.52 8.54 153.26 8.54L153.26 8.54L153.26 8.54Q153.99 8.54 154.38 8.90L154.38 8.90L154.38 8.90Q154.77 9.27 154.77 9.94L154.77 9.94L154.77 9.94Q154.77 10.26 154.68 10.56L154.68 10.56L154.68 10.56Q154.59 10.86 154.44 11.10L154.44 11.10L154.44 11.10Q154.29 11.34 154.10 11.49L154.10 11.49L154.10 11.49Q153.90 11.63 153.71 11.63L153.71 11.63L153.71 11.63Q153.54 11.63 153.36 11.53L153.36 11.53L153.36 11.53Q153.19 11.42 153.08 11.26L153.08 11.26L153.08 11.26Q154.01 10.40 154.01 9.70L154.01 9.70L154.01 9.70Q154.01 9.30 153.69 9.30L153.69 9.30L153.69 9.30Q153.41 9.30 152.99 9.56L152.99 9.56L152.99 9.56Q152.57 9.83 152.18 10.26L152.18 10.26L152.18 10.26Q151.58 10.93 151.26 11.75L151.26 11.75L151.26 11.75Q150.95 12.57 150.95 13.47L150.95 13.47L150.95 13.47Q150.95 14.60 151.45 14.83L151.45 14.83L151.45 14.83Q151.66 14.80 151.94 14.70L151.94 14.70L151.94 14.70Q152.22 14.60 152.54 14.44L152.54 14.44L152.54 14.44Q152.87 14.28 153.21 14.07L153.21 14.07L153.21 14.07Q153.55 13.86 153.87 13.62L153.87 13.62L153.87 13.62Q153.93 13.66 153.97 13.75L153.97 13.75L153.97 13.75Q154.01 13.83 154.01 13.90L154.01 13.90L154.01 13.90Q153.78 14.20 153.47 14.48L153.47 14.48L153.47 14.48Q153.16 14.76 152.82 14.99L152.82 14.99L152.82 14.99Q152.49 15.22 152.17 15.38L152.17 15.38L152.17 15.38Q151.86 15.54 151.62 15.58L151.62 15.58L151.62 15.58Q151.16 15.54 150.75 15.29L150.75 15.29L150.75 15.29Q150.35 15.05 150.05 14.66L150.05 14.66L150.05 14.66Q149.74 14.27 149.57 13.76L149.57 13.76L149.57 13.76Q149.39 13.26 149.39 12.71ZM162.20 14.24L162.20 14.24L162.20 14.24Q162.20 14.11 162.23 13.92L162.23 13.92L162.23 13.92Q162.25 13.73 162.30 13.42L162.30 13.42L162.30 13.42Q162.36 13.10 162.45 12.66L162.45 12.66L162.45 12.66Q162.54 12.21 162.68 11.58L162.68 11.58L162.68 11.58Q162.71 11.44 162.81 11.13L162.81 11.13L162.81 11.13Q162.90 10.82 163.07 10.48L163.07 10.48L163.07 10.48Q163.23 10.14 163.46 9.81L163.46 9.81L163.46 9.81Q163.69 9.49 164.01 9.34L164.01 9.34L164.01 9.34Q164.25 9.39 164.64 9.63L164.64 9.63L164.64 9.63Q165.03 9.86 165.31 10.26L165.31 10.26L165.31 10.26Q164.99 10.63 164.77 10.99L164.77 10.99L164.77 10.99Q164.56 11.35 164.38 11.75L164.38 11.75L164.38 11.75Q164.21 12.14 164.06 12.56L164.06 12.56L164.06 12.56Q163.91 12.98 163.73 13.44L163.73 13.44L163.73 13.44Q163.58 13.83 163.45 14.25L163.45 14.25L163.45 14.25Q163.32 14.66 163.31 14.97L163.31 14.97L163.31 14.97Q163.31 15.22 163.30 15.32L163.30 15.32L163.30 15.32Q163.30 15.43 163.23 15.43L163.23 15.43L163.23 15.43Q163.17 15.43 163.00 15.36L163.00 15.36L163.00 15.36Q162.83 15.29 162.66 15.14L162.66 15.14L162.66 15.14Q162.48 14.99 162.34 14.77L162.34 14.77L162.34 14.77Q162.20 14.55 162.20 14.24ZM164.88 8.16L164.88 8.16L164.88 8.16Q164.88 8.08 164.92 7.91L164.92 7.91L164.92 7.91Q164.85 7.84 164.80 7.70L164.80 7.70L164.80 7.70Q164.75 7.56 164.75 7.45L164.75 7.45L164.75 7.45Q164.75 7.32 164.79 7.11L164.79 7.11L164.79 7.11Q164.82 6.89 164.88 6.64L164.88 6.64L164.88 6.64Q164.93 6.38 165.02 6.11L165.02 6.11L165.02 6.11Q165.10 5.84 165.19 5.61L165.19 5.61L165.19 5.61Q165.35 5.61 165.60 5.71L165.60 5.71L165.60 5.71Q165.84 5.80 166.10 5.94L166.10 5.94L166.10 5.94Q166.35 6.09 166.56 6.27L166.56 6.27L166.56 6.27Q166.77 6.44 166.88 6.59L166.88 6.59L166.88 6.59Q166.73 6.75 166.47 7.02L166.47 7.02L166.47 7.02Q166.22 7.29 165.98 7.59L165.98 7.59L165.98 7.59Q165.75 7.90 165.55 8.16L165.55 8.16L165.55 8.16Q165.35 8.43 165.30 8.54L165.30 8.54L165.30 8.54Q165.13 8.51 165.00 8.39L165.00 8.39L165.00 8.39Q164.88 8.27 164.88 8.16ZM174.15 15.67L174.15 15.67L174.15 15.67Q173.35 15.58 172.87 14.97L172.87 14.97L172.87 14.97Q172.40 14.35 172.40 13.40L172.40 13.40L172.40 13.40Q172.40 12.84 172.56 12.24L172.56 12.24L172.56 12.24Q172.73 11.63 173.04 11.07L173.04 11.07L173.04 11.07Q173.35 10.50 173.77 10.00L173.77 10.00L173.77 10.00Q174.19 9.49 174.68 9.13L174.68 9.13L174.68 9.13Q175.45 8.55 176.12 8.55L176.12 8.55L176.12 8.55Q176.57 8.79 177.00 9.55L177.00 9.55L177.00 9.55Q177.07 9.55 177.13 9.54L177.13 9.54L177.13 9.54Q177.18 9.53 177.25 9.53L177.25 9.53L177.25 9.53Q178.00 9.53 178.00 10.85L178.00 10.85L178.00 10.85Q178.00 11.73 177.71 12.52L177.71 12.52L177.71 12.52Q177.42 13.31 176.91 13.96L176.91 13.96L176.91 13.96Q176.40 14.60 175.69 15.04L175.69 15.04L175.69 15.04Q174.99 15.48 174.15 15.67ZM174.86 11.26L174.86 11.26L174.86 11.26Q174.62 11.58 174.41 11.96L174.41 11.96L174.41 11.96Q174.20 12.33 174.05 12.72L174.05 12.72L174.05 12.72Q173.89 13.10 173.81 13.46L173.81 13.46L173.81 13.46Q173.73 13.82 173.73 14.10L173.73 14.10L173.73 14.10Q173.73 14.43 173.84 14.74L173.84 14.74L173.84 14.74Q173.95 15.05 174.09 15.09L174.09 15.09L174.09 15.09Q174.72 14.95 175.25 14.57L175.25 14.57L175.25 14.57Q175.77 14.18 176.16 13.61L176.16 13.61L176.16 13.61Q176.54 13.03 176.76 12.31L176.76 12.31L176.76 12.31Q176.97 11.58 176.97 10.75L176.97 10.75L176.97 10.75Q176.97 10.39 176.93 10.18L176.93 10.18L176.93 10.18Q176.89 9.97 176.79 9.81L176.79 9.81L176.79 9.81Q176.18 10.00 175.69 10.40L175.69 10.40L175.69 10.40Q175.21 10.81 174.86 11.26ZM187.94 8.39L187.94 8.39L187.94 8.39Q188.30 8.50 188.62 8.88L188.62 8.88L188.62 8.88Q188.94 9.27 189.10 9.73L189.10 9.73L189.10 9.73Q188.94 10.11 188.62 10.64L188.62 10.64L188.62 10.64Q188.30 11.17 187.98 11.72L187.98 11.72L187.98 11.72Q187.66 12.28 187.40 12.78L187.40 12.78L187.40 12.78Q187.14 13.27 187.10 13.59L187.10 13.59L187.10 13.59Q187.32 13.36 187.59 13.04L187.59 13.04L187.59 13.04Q187.87 12.73 188.13 12.41L188.13 12.41L188.13 12.41Q188.38 12.10 188.61 11.84L188.61 11.84L188.61 11.84Q188.83 11.58 188.96 11.45L188.96 11.45L188.96 11.45Q189.22 11.17 189.59 10.80L189.59 10.80L189.59 10.80Q189.95 10.43 190.35 10.10L190.35 10.10L190.35 10.10Q190.75 9.77 191.16 9.54L191.16 9.54L191.16 9.54Q191.56 9.31 191.90 9.31L191.90 9.31L191.90 9.31Q192.26 9.31 192.51 9.55L192.51 9.55L192.51 9.55Q192.75 9.80 192.89 10.07L192.89 10.07L192.89 10.07Q192.89 10.09 192.79 10.14L192.79 10.14L192.79 10.14Q192.68 10.19 192.49 10.42L192.49 10.42L192.49 10.42Q192.29 10.67 192.05 11.11L192.05 11.11L192.05 11.11Q191.80 11.55 191.57 12.06L191.57 12.06L191.57 12.06Q191.34 12.57 191.18 13.10L191.18 13.10L191.18 13.10Q191.03 13.64 191.03 14.07L191.03 14.07L191.03 14.07Q191.03 14.42 191.12 14.52L191.12 14.52L191.12 14.52Q191.21 14.62 191.38 14.62L191.38 14.62L191.38 14.62Q191.53 14.62 191.70 14.55L191.70 14.55L191.70 14.55Q191.87 14.48 191.97 14.48L191.97 14.48L191.97 14.48Q192.02 14.50 192.06 14.60L192.06 14.60L192.06 14.60Q192.09 14.69 192.09 14.76L192.09 14.76L192.09 14.76Q191.98 14.85 191.83 14.95L191.83 14.95L191.83 14.95Q191.67 15.05 191.51 15.13L191.51 15.13L191.51 15.13Q191.34 15.22 191.18 15.27L191.18 15.27L191.18 15.27Q191.02 15.33 190.89 15.33L190.89 15.33L190.89 15.33Q190.48 15.33 190.23 15.21L190.23 15.21L190.23 15.21Q189.97 15.09 189.82 14.90L189.82 14.90L189.82 14.90Q189.67 14.70 189.62 14.43L189.62 14.43L189.62 14.43Q189.56 14.15 189.56 13.85L189.56 13.85L189.56 13.85Q189.56 13.68 189.59 13.47L189.59 13.47L189.59 13.47Q189.62 13.26 189.70 12.97L189.70 12.97L189.70 12.97Q189.78 12.68 189.94 12.29L189.94 12.29L189.94 12.29Q190.09 11.89 190.33 11.33L190.33 11.33L190.33 11.33Q190.30 11.33 189.95 11.52L189.95 11.52L189.95 11.52Q189.60 11.72 189.20 12.12L189.20 12.12L189.20 12.12Q188.54 12.75 188.01 13.37L188.01 13.37L188.01 13.37Q187.49 13.99 186.94 14.74L186.94 14.74L186.94 14.74Q186.63 15.18 186.40 15.48L186.40 15.48L186.40 15.48Q186.17 15.78 186.00 15.88L186.00 15.88L186.00 15.88Q185.71 15.71 185.57 15.41L185.57 15.41L185.57 15.41Q185.43 15.11 185.36 14.78L185.36 14.78L185.36 14.78Q185.36 14.52 185.44 14.11L185.44 14.11L185.44 14.11Q185.51 13.71 185.65 13.21L185.65 13.21L185.65 13.21Q185.78 12.71 185.98 12.17L185.98 12.17L185.98 12.17Q186.17 11.62 186.41 11.07L186.41 11.07L186.41 11.07Q186.94 9.84 187.38 9.14L187.38 9.14L187.38 9.14Q187.82 8.44 187.94 8.39ZM215.57 9.38L215.57 9.38L215.57 9.38Q215.52 10.25 215.26 10.87L215.26 10.87L215.26 10.87Q215.01 11.49 214.54 11.96L214.54 11.96L214.54 11.96Q214.07 12.43 213.40 12.81L213.40 12.81L213.40 12.81Q212.73 13.19 211.83 13.54L211.83 13.54L211.83 13.54Q211.83 13.62 211.83 13.71L211.83 13.71L211.83 13.71Q211.82 13.80 211.82 13.90L211.82 13.90L211.82 13.90Q211.82 14.08 211.85 14.28L211.85 14.28L211.85 14.28Q211.88 14.48 211.95 14.64L211.95 14.64L211.95 14.64Q212.02 14.81 212.14 14.92L212.14 14.92L212.14 14.92Q212.27 15.02 212.46 15.02L212.46 15.02L212.46 15.02Q212.84 15.02 213.21 14.85L213.21 14.85L213.21 14.85Q213.57 14.69 213.90 14.44L213.90 14.44L213.90 14.44Q214.23 14.20 214.52 13.91L214.52 13.91L214.52 13.91Q214.80 13.62 215.03 13.38L215.03 13.38L215.03 13.38Q215.17 13.51 215.26 13.62L215.26 13.62L215.26 13.62Q214.63 14.46 213.89 15.02L213.89 15.02L213.89 15.02Q213.14 15.57 212.46 15.72L212.46 15.72L212.46 15.72Q211.50 15.61 210.96 15.02L210.96 15.02L210.96 15.02Q210.42 14.42 210.42 13.58L210.42 13.58L210.42 13.58Q210.42 13.01 210.58 12.41L210.58 12.41L210.58 12.41Q210.74 11.82 211.03 11.26L211.03 11.26L211.03 11.26Q211.32 10.71 211.70 10.22L211.70 10.22L211.70 10.22Q212.09 9.73 212.53 9.37L212.53 9.37L212.53 9.37Q212.97 9.00 213.44 8.79L213.44 8.79L213.44 8.79Q213.91 8.58 214.37 8.58L214.37 8.58L214.37 8.58Q215.01 8.67 215.57 9.38ZM214.61 9.84L214.61 9.84L214.61 9.84Q214.23 9.90 213.82 10.15L213.82 10.15L213.82 10.15Q213.42 10.40 213.06 10.82L213.06 10.82L213.06 10.82Q212.70 11.24 212.41 11.80L212.41 11.80L212.41 11.80Q212.11 12.36 211.95 13.01L211.95 13.01L211.95 13.01Q213.07 12.45 213.81 11.63L213.81 11.63L213.81 11.63Q214.55 10.81 214.61 9.84ZM228.05 9.60L228.05 9.60L228.05 9.60Q228.03 9.87 227.96 10.16L227.96 10.16L227.96 10.16Q227.88 10.44 227.77 10.68L227.77 10.68L227.77 10.68Q227.65 10.91 227.53 11.06L227.53 11.06L227.53 11.06Q227.40 11.21 227.29 11.21L227.29 11.21L227.29 11.21Q227.14 11.20 227.11 11.00L227.11 11.00L227.11 11.00Q227.11 10.96 227.14 10.87L227.14 10.87L227.14 10.87Q227.18 10.78 227.22 10.67L227.22 10.67L227.22 10.67Q227.26 10.56 227.30 10.44L227.30 10.44L227.30 10.44Q227.33 10.33 227.33 10.25L227.33 10.25L227.33 10.25Q227.33 10.05 227.24 9.92L227.24 9.92L227.24 9.92Q227.15 9.79 227.00 9.79L227.00 9.79L227.00 9.79Q226.44 9.79 226.14 10.49L226.14 10.49L226.14 10.49Q225.85 11.19 225.85 12.54L225.85 12.54L225.85 12.54Q225.85 12.68 225.86 12.71L225.86 12.71L225.86 12.71Q226.16 12.70 226.39 12.69L226.39 12.69L226.39 12.69Q226.62 12.68 226.84 12.68L226.84 12.68L226.84 12.68Q226.86 12.71 226.86 12.80L226.86 12.80L226.86 12.80Q226.86 12.92 226.80 12.98L226.80 12.98L226.80 12.98Q226.48 13.05 226.29 13.10L226.29 13.10L226.29 13.10Q226.10 13.15 226.00 13.19L226.00 13.19L226.00 13.19Q225.90 13.23 225.88 13.28L225.88 13.28L225.88 13.28Q225.86 13.33 225.86 13.41L225.86 13.41L225.86 13.41Q225.86 13.52 225.87 13.64L225.87 13.64L225.87 13.64Q225.88 13.75 225.88 13.92L225.88 13.92L225.88 13.92Q225.88 15.09 225.24 15.81L225.24 15.81L225.24 15.81Q224.60 16.52 223.47 16.63L223.47 16.63L223.47 16.63Q223.27 16.62 223.06 16.52L223.06 16.52L223.06 16.52Q222.85 16.42 222.66 16.27L222.66 16.27L222.66 16.27Q222.47 16.11 222.33 15.93L222.33 15.93L222.33 15.93Q222.19 15.74 222.14 15.54L222.14 15.54L222.14 15.54Q222.14 15.01 222.36 14.53L222.36 14.53L222.36 14.53Q222.59 14.04 222.97 13.67L222.97 13.67L222.97 13.67Q223.36 13.30 223.88 13.07L223.88 13.07L223.88 13.07Q224.41 12.84 225.02 12.80L225.02 12.80L225.02 12.80Q225.02 12.45 224.95 12.11L224.95 12.11L224.95 12.11Q224.88 11.77 224.81 11.46L224.81 11.46L224.81 11.46Q224.73 11.14 224.66 10.84L224.66 10.84L224.66 10.84Q224.59 10.54 224.59 10.25L224.59 10.25L224.59 10.25Q224.59 9.87 224.74 9.50L224.74 9.50L224.74 9.50Q224.90 9.13 225.15 8.81L225.15 8.81L225.15 8.81Q225.40 8.50 225.74 8.27L225.74 8.27L225.74 8.27Q226.07 8.05 226.44 7.97L226.44 7.97L226.44 7.97Q226.59 8.01 226.85 8.21L226.85 8.21L226.85 8.21Q227.11 8.41 227.36 8.67L227.36 8.67L227.36 8.67Q227.61 8.92 227.81 9.18L227.81 9.18L227.81 9.18Q228.00 9.44 228.05 9.60ZM223.43 15.99L223.43 15.99L223.43 15.99Q223.76 15.85 224.06 15.58L224.06 15.58L224.06 15.58Q224.36 15.32 224.59 14.98L224.59 14.98L224.59 14.98Q224.81 14.64 224.95 14.27L224.95 14.27L224.95 14.27Q225.08 13.89 225.08 13.52L225.08 13.52L225.08 13.52Q224.80 13.57 224.46 13.78L224.46 13.78L224.46 13.78Q224.13 14 223.83 14.30L223.83 14.30L223.83 14.30Q223.54 14.60 223.34 14.92L223.34 14.92L223.34 14.92Q223.15 15.25 223.15 15.48L223.15 15.48L223.15 15.48Q223.15 15.79 223.43 15.99ZM253.48 10.88L253.48 10.88L253.48 10.88Q253.26 10.89 252.94 11.16L252.94 11.16L252.94 11.16Q252.62 11.44 252.25 11.87L252.25 11.87L252.25 11.87Q251.87 12.29 251.48 12.81L251.48 12.81L251.48 12.81Q251.08 13.33 250.71 13.84L250.71 13.84L250.71 13.84Q250.33 14.35 250.01 14.80L250.01 14.80L250.01 14.80Q249.69 15.25 249.47 15.51L249.47 15.51L249.47 15.51Q249.16 15.39 248.93 15.14L248.93 15.14L248.93 15.14Q248.71 14.90 248.61 14.53L248.61 14.53L248.61 14.53Q248.68 14.10 248.81 13.63L248.81 13.63L248.81 13.63Q248.93 13.16 249.14 12.66L249.14 12.66L249.14 12.66Q249.34 12.15 249.64 11.60L249.64 11.60L249.64 11.60Q249.94 11.05 250.38 10.43L250.38 10.43L250.38 10.43Q250.17 10.44 249.80 10.73L249.80 10.73L249.80 10.73Q249.44 11.02 249.02 11.47L249.02 11.47L249.02 11.47Q248.60 11.93 248.15 12.50L248.15 12.50L248.15 12.50Q247.70 13.06 247.31 13.61L247.31 13.61L247.31 13.61Q246.79 14.34 246.45 14.88L246.45 14.88L246.45 14.88Q246.11 15.43 245.95 15.53L245.95 15.53L245.95 15.53Q245.59 15.26 245.45 14.95L245.45 14.95L245.45 14.95Q245.31 14.64 245.24 14.27L245.24 14.27L245.24 14.27Q245.25 13.93 245.34 13.43L245.34 13.43L245.34 13.43Q245.43 12.92 245.60 12.39L245.60 12.39L245.60 12.39Q245.92 11.37 246.44 10.36L246.44 10.36L246.44 10.36Q246.95 9.35 247.42 8.51L247.42 8.51L247.42 8.51Q247.81 8.60 248.13 8.78L248.13 8.78L248.13 8.78Q248.44 8.96 248.79 9.31L248.79 9.31L248.79 9.31Q248.65 9.74 248.36 10.23L248.36 10.23L248.36 10.23Q248.07 10.71 247.74 11.24L247.74 11.24L247.74 11.24Q247.42 11.77 247.16 12.33L247.16 12.33L247.16 12.33Q246.89 12.89 246.81 13.47L246.81 13.47L246.81 13.47Q247.20 12.91 247.74 12.18L247.74 12.18L247.74 12.18Q248.28 11.45 248.84 10.81L248.84 10.81L248.84 10.81Q249.41 10.16 249.97 9.72L249.97 9.72L249.97 9.72Q250.53 9.27 250.98 9.27L250.98 9.27L250.98 9.27Q251.15 9.27 251.34 9.32L251.34 9.32L251.34 9.32Q251.54 9.38 251.71 9.46L251.71 9.46L251.71 9.46Q251.87 9.55 251.99 9.63L251.99 9.63L251.99 9.63Q252.10 9.70 252.11 9.74L252.11 9.74L252.11 9.74Q252.04 10.02 251.78 10.51L251.78 10.51L251.78 10.51Q251.52 10.99 251.23 11.52L251.23 11.52L251.23 11.52Q250.94 12.05 250.68 12.55L250.68 12.55L250.68 12.55Q250.43 13.05 250.39 13.34L250.39 13.34L250.39 13.34Q251.08 12.40 251.68 11.64L251.68 11.64L251.68 11.64Q252.28 10.88 252.81 10.33L252.81 10.33L252.81 10.33Q253.34 9.79 253.80 9.49L253.80 9.49L253.80 9.49Q254.25 9.20 254.66 9.20L254.66 9.20L254.66 9.20Q254.94 9.20 255.19 9.34L255.19 9.34L255.19 9.34Q255.43 9.49 255.53 9.77L255.53 9.77L255.53 9.77Q255.40 10.19 255.12 10.78L255.12 10.78L255.12 10.78Q254.83 11.37 254.53 12.02L254.53 12.02L254.53 12.02Q254.24 12.67 254.01 13.30L254.01 13.30L254.01 13.30Q253.78 13.93 253.78 14.43L253.78 14.43L253.78 14.43Q253.78 14.73 253.86 14.82L253.86 14.82L253.86 14.82Q253.95 14.91 254.10 14.91L254.10 14.91L254.10 14.91Q254.27 14.91 254.42 14.85L254.42 14.85L254.42 14.85Q254.56 14.78 254.63 14.78L254.63 14.78L254.63 14.78Q254.72 14.84 254.73 14.92L254.73 14.92L254.73 14.92Q254.74 15.01 254.74 15.08L254.74 15.08L254.74 15.08Q254.46 15.30 254.17 15.45L254.17 15.45L254.17 15.45Q253.88 15.60 253.51 15.60L253.51 15.60L253.51 15.60Q253.18 15.60 252.96 15.48L252.96 15.48L252.96 15.48Q252.74 15.37 252.60 15.18L252.60 15.18L252.60 15.18Q252.46 14.98 252.41 14.73L252.41 14.73L252.41 14.73Q252.35 14.48 252.35 14.18L252.35 14.18L252.35 14.18Q252.35 13.71 252.48 13.24L252.48 13.24L252.48 13.24Q252.60 12.77 252.78 12.34L252.78 12.34L252.78 12.34Q252.95 11.91 253.15 11.54L253.15 11.54L253.15 11.54Q253.34 11.17 253.48 10.88ZM263.12 14.24L263.12 14.24L263.12 14.24Q263.12 14.11 263.14 13.92L263.14 13.92L263.14 13.92Q263.16 13.73 263.21 13.42L263.21 13.42L263.21 13.42Q263.27 13.10 263.36 12.66L263.36 12.66L263.36 12.66Q263.45 12.21 263.59 11.58L263.59 11.58L263.59 11.58Q263.62 11.44 263.72 11.13L263.72 11.13L263.72 11.13Q263.82 10.82 263.98 10.48L263.98 10.48L263.98 10.48Q264.14 10.14 264.37 9.81L264.37 9.81L264.37 9.81Q264.60 9.49 264.92 9.34L264.92 9.34L264.92 9.34Q265.16 9.39 265.55 9.63L265.55 9.63L265.55 9.63Q265.94 9.86 266.22 10.26L266.22 10.26L266.22 10.26Q265.90 10.63 265.69 10.99L265.69 10.99L265.69 10.99Q265.47 11.35 265.29 11.75L265.29 11.75L265.29 11.75Q265.12 12.14 264.97 12.56L264.97 12.56L264.97 12.56Q264.82 12.98 264.64 13.44L264.64 13.44L264.64 13.44Q264.49 13.83 264.36 14.25L264.36 14.25L264.36 14.25Q264.24 14.66 264.22 14.97L264.22 14.97L264.22 14.97Q264.22 15.22 264.22 15.32L264.22 15.32L264.22 15.32Q264.21 15.43 264.14 15.43L264.14 15.43L264.14 15.43Q264.08 15.43 263.91 15.36L263.91 15.36L263.91 15.36Q263.75 15.29 263.57 15.14L263.57 15.14L263.57 15.14Q263.40 14.99 263.26 14.77L263.26 14.77L263.26 14.77Q263.12 14.55 263.12 14.24ZM265.79 8.16L265.79 8.16L265.79 8.16Q265.79 8.08 265.83 7.91L265.83 7.91L265.83 7.91Q265.76 7.84 265.71 7.70L265.71 7.70L265.71 7.70Q265.66 7.56 265.66 7.45L265.66 7.45L265.66 7.45Q265.66 7.32 265.70 7.11L265.70 7.11L265.70 7.11Q265.73 6.89 265.79 6.64L265.79 6.64L265.79 6.64Q265.85 6.38 265.93 6.11L265.93 6.11L265.93 6.11Q266.01 5.84 266.10 5.61L266.10 5.61L266.10 5.61Q266.27 5.61 266.51 5.71L266.51 5.71L266.51 5.71Q266.76 5.80 267.01 5.94L267.01 5.94L267.01 5.94Q267.26 6.09 267.47 6.27L267.47 6.27L267.47 6.27Q267.68 6.44 267.79 6.59L267.79 6.59L267.79 6.59Q267.64 6.75 267.39 7.02L267.39 7.02L267.39 7.02Q267.13 7.29 266.90 7.59L266.90 7.59L266.90 7.59Q266.66 7.90 266.46 8.16L266.46 8.16L266.46 8.16Q266.27 8.43 266.21 8.54L266.21 8.54L266.21 8.54Q266.04 8.51 265.92 8.39L265.92 8.39L265.92 8.39Q265.79 8.27 265.79 8.16ZM282.72 19.81L282.72 19.81L282.72 19.81Q282.52 19.75 282.49 19.39L282.49 19.39L282.49 19.39Q282.44 19.21 282.42 18.96L282.42 18.96L282.42 18.96Q282.39 18.70 282.39 18.38L282.39 18.38L282.39 18.38Q282.39 18.09 282.49 17.58L282.49 17.58L282.49 17.58Q282.59 17.07 282.76 16.42L282.76 16.42L282.76 16.42Q282.94 15.78 283.19 15.03L283.19 15.03L283.19 15.03Q283.44 14.28 283.75 13.51L283.75 13.51L283.75 13.51Q284.13 12.54 284.41 11.84L284.41 11.84L284.41 11.84Q284.69 11.13 284.88 10.61L284.88 10.61L284.88 10.61Q285.07 10.09 285.19 9.76L285.19 9.76L285.19 9.76Q285.31 9.42 285.38 9.18L285.38 9.18L285.38 9.18Q285.43 9.02 285.54 8.78L285.54 8.78L285.54 8.78Q285.66 8.54 285.80 8.29L285.80 8.29L285.80 8.29Q285.95 8.05 286.10 7.83L286.10 7.83L286.10 7.83Q286.26 7.62 286.38 7.50L286.38 7.50L286.38 7.50Q286.87 7.57 287.31 7.76L287.31 7.76L287.31 7.76Q287.74 7.94 287.84 8.11L287.84 8.11L287.84 8.11Q287.64 8.29 287.39 8.67L287.39 8.67L287.39 8.67Q287.14 9.06 286.90 9.51L286.90 9.51L286.90 9.51Q286.66 9.97 286.47 10.44L286.47 10.44L286.47 10.44Q286.27 10.92 286.17 11.28L286.17 11.28L286.17 11.28Q286.31 11.05 286.54 10.77L286.54 10.77L286.54 10.77Q286.76 10.49 287.22 10.00L287.22 10.00L287.22 10.00Q287.74 9.46 288.20 9.18L288.20 9.18L288.20 9.18Q288.65 8.89 288.99 8.89L288.99 8.89L288.99 8.89Q289.52 8.89 289.86 9.18L289.86 9.18L289.86 9.18Q290.21 9.48 290.21 9.94L290.21 9.94L290.21 9.94Q290.21 10.95 289.87 11.94L289.87 11.94L289.87 11.94Q289.53 12.92 288.90 13.72L288.90 13.72L288.90 13.72Q288.67 14.03 288.34 14.31L288.34 14.31L288.34 14.31Q288.02 14.59 287.67 14.80L287.67 14.80L287.67 14.80Q287.32 15.02 286.99 15.15L286.99 15.15L286.99 15.15Q286.65 15.27 286.38 15.27L286.38 15.27L286.38 15.27Q286.13 15.27 285.94 15.17L285.94 15.17L285.94 15.17Q285.75 15.06 285.68 14.91L285.68 14.91L285.68 14.91Q286.23 14.59 286.75 14.01L286.75 14.01L286.75 14.01Q287.27 13.44 287.71 12.69L287.71 12.69L287.71 12.69Q288.15 11.94 288.48 11.07L288.48 11.07L288.48 11.07Q288.81 10.21 288.97 9.31L288.97 9.31L288.97 9.31Q288.44 9.59 288.01 9.92L288.01 9.92L288.01 9.92Q287.59 10.25 287.17 10.78L287.17 10.78L287.17 10.78Q286.66 11.40 286.37 11.77L286.37 11.77L286.37 11.77Q286.08 12.15 285.89 12.42L285.89 12.42L285.89 12.42Q285.70 12.68 285.58 12.91L285.58 12.91L285.58 12.91Q285.46 13.15 285.32 13.48L285.32 13.48L285.32 13.48Q285.12 13.93 284.87 14.67L284.87 14.67L284.87 14.67Q284.61 15.40 284.33 16.31L284.33 16.31L284.33 16.31Q284.06 17.22 283.79 18.25L283.79 18.25L283.79 18.25Q283.51 19.28 283.26 20.30L283.26 20.30L283.26 20.30Q283.11 20.27 283.00 20.08L283.00 20.08L283.00 20.08Q282.88 19.95 282.83 19.89L282.83 19.89L282.83 19.89Q282.79 19.84 282.72 19.81ZM302.54 9.52L302.54 9.52L302.54 9.52Q302.68 9.52 302.87 9.57L302.87 9.57L302.87 9.57Q303.06 9.62 303.21 9.70L303.21 9.70L303.21 9.70Q303.37 9.77 303.47 9.86L303.47 9.86L303.47 9.86Q303.58 9.94 303.58 10.01L303.58 10.01L303.58 10.01Q303.30 10.60 303.06 11.19L303.06 11.19L303.06 11.19Q302.82 11.79 302.65 12.33L302.65 12.33L302.65 12.33Q302.48 12.88 302.39 13.36L302.39 13.36L302.39 13.36Q302.30 13.83 302.30 14.18L302.30 14.18L302.30 14.18Q302.30 14.57 302.39 14.83L302.39 14.83L302.39 14.83Q302.47 15.09 302.67 15.20L302.67 15.20L302.67 15.20Q302.50 15.32 302.23 15.39L302.23 15.39L302.23 15.39Q301.97 15.46 301.76 15.46L301.76 15.46L301.76 15.46Q301 15.46 301 14.42L301 14.42L301 14.42Q301 13.62 301.53 12.24L301.53 12.24L301.53 12.24Q301.25 12.88 300.89 13.45L300.89 13.45L300.89 13.45Q300.52 14.01 300.15 14.45L300.15 14.45L300.15 14.45Q299.77 14.88 299.38 15.15L299.38 15.15L299.38 15.15Q299.00 15.43 298.68 15.48L298.68 15.48L298.68 15.48Q298.16 15.46 297.84 14.99L297.84 14.99L297.84 14.99Q297.51 14.52 297.51 13.79L297.51 13.79L297.51 13.79Q297.51 13.01 297.85 12.14L297.85 12.14L297.85 12.14Q298.19 11.27 298.71 10.53L298.71 10.53L298.71 10.53Q299.24 9.79 299.85 9.29L299.85 9.29L299.85 9.29Q300.47 8.79 301.04 8.76L301.04 8.76L301.04 8.76Q301.18 8.81 301.36 8.93L301.36 8.93L301.36 8.93Q301.53 9.06 301.69 9.23L301.69 9.23L301.69 9.23Q301.85 9.39 301.97 9.57L301.97 9.57L301.97 9.57Q302.08 9.74 302.09 9.87L302.09 9.87L302.09 9.87Q301.53 9.95 300.94 10.42L300.94 10.42L300.94 10.42Q300.34 10.88 299.86 11.53L299.86 11.53L299.86 11.53Q299.38 12.18 299.07 12.92L299.07 12.92L299.07 12.92Q298.76 13.66 298.76 14.31L298.76 14.31L298.76 14.31Q298.76 14.57 298.96 14.64L298.96 14.64L298.96 14.64Q299.36 14.56 299.89 13.95L299.89 13.95L299.89 13.95Q300.43 13.34 301.18 12.07L301.18 12.07L301.18 12.07Q301.32 11.82 301.50 11.51L301.50 11.51L301.50 11.51Q301.67 11.20 301.85 10.86L301.85 10.86L301.85 10.86Q302.04 10.53 302.21 10.18L302.21 10.18L302.21 10.18Q302.39 9.84 302.54 9.52ZM316.12 9.60L316.12 9.60L316.12 9.60Q316.11 9.87 316.03 10.16L316.03 10.16L316.03 10.16Q315.95 10.44 315.84 10.68L315.84 10.68L315.84 10.68Q315.73 10.91 315.60 11.06L315.60 11.06L315.60 11.06Q315.48 11.21 315.36 11.21L315.36 11.21L315.36 11.21Q315.21 11.20 315.18 11.00L315.18 11.00L315.18 11.00Q315.18 10.96 315.22 10.87L315.22 10.87L315.22 10.87Q315.25 10.78 315.29 10.67L315.29 10.67L315.29 10.67Q315.34 10.56 315.37 10.44L315.37 10.44L315.37 10.44Q315.41 10.33 315.41 10.25L315.41 10.25L315.41 10.25Q315.41 10.05 315.31 9.92L315.31 9.92L315.31 9.92Q315.22 9.79 315.07 9.79L315.07 9.79L315.07 9.79Q314.51 9.79 314.22 10.49L314.22 10.49L314.22 10.49Q313.92 11.19 313.92 12.54L313.92 12.54L313.92 12.54Q313.92 12.68 313.94 12.71L313.94 12.71L313.94 12.71Q314.23 12.70 314.46 12.69L314.46 12.69L314.46 12.69Q314.69 12.68 314.92 12.68L314.92 12.68L314.92 12.68Q314.93 12.71 314.93 12.80L314.93 12.80L314.93 12.80Q314.93 12.92 314.87 12.98L314.87 12.98L314.87 12.98Q314.55 13.05 314.36 13.10L314.36 13.10L314.36 13.10Q314.17 13.15 314.08 13.19L314.08 13.19L314.08 13.19Q313.98 13.23 313.96 13.28L313.96 13.28L313.96 13.28Q313.94 13.33 313.94 13.41L313.94 13.41L313.94 13.41Q313.94 13.52 313.94 13.64L313.94 13.64L313.94 13.64Q313.95 13.75 313.95 13.92L313.95 13.92L313.95 13.92Q313.95 15.09 313.31 15.81L313.31 15.81L313.31 15.81Q312.68 16.52 311.54 16.63L311.54 16.63L311.54 16.63Q311.35 16.62 311.14 16.52L311.14 16.52L311.14 16.52Q310.93 16.42 310.74 16.27L310.74 16.27L310.74 16.27Q310.55 16.11 310.41 15.93L310.41 15.93L310.41 15.93Q310.27 15.74 310.21 15.54L310.21 15.54L310.21 15.54Q310.21 15.01 310.44 14.53L310.44 14.53L310.44 14.53Q310.66 14.04 311.04 13.67L311.04 13.67L311.04 13.67Q311.43 13.30 311.95 13.07L311.95 13.07L311.95 13.07Q312.48 12.84 313.10 12.80L313.10 12.80L313.10 12.80Q313.10 12.45 313.03 12.11L313.03 12.11L313.03 12.11Q312.96 11.77 312.88 11.46L312.88 11.46L312.88 11.46Q312.80 11.14 312.73 10.84L312.73 10.84L312.73 10.84Q312.66 10.54 312.66 10.25L312.66 10.25L312.66 10.25Q312.66 9.87 312.82 9.50L312.82 9.50L312.82 9.50Q312.97 9.13 313.22 8.81L313.22 8.81L313.22 8.81Q313.47 8.50 313.81 8.27L313.81 8.27L313.81 8.27Q314.15 8.05 314.51 7.97L314.51 7.97L314.51 7.97Q314.66 8.01 314.92 8.21L314.92 8.21L314.92 8.21Q315.18 8.41 315.43 8.67L315.43 8.67L315.43 8.67Q315.69 8.92 315.88 9.18L315.88 9.18L315.88 9.18Q316.08 9.44 316.12 9.60ZM311.50 15.99L311.50 15.99L311.50 15.99Q311.84 15.85 312.14 15.58L312.14 15.58L312.14 15.58Q312.44 15.32 312.66 14.98L312.66 14.98L312.66 14.98Q312.89 14.64 313.02 14.27L313.02 14.27L313.02 14.27Q313.15 13.89 313.15 13.52L313.15 13.52L313.15 13.52Q312.87 13.57 312.54 13.78L312.54 13.78L312.54 13.78Q312.20 14 311.91 14.30L311.91 14.30L311.91 14.30Q311.61 14.60 311.42 14.92L311.42 14.92L311.42 14.92Q311.22 15.25 311.22 15.48L311.22 15.48L311.22 15.48Q311.22 15.79 311.50 15.99ZM323.15 14.24L323.15 14.24L323.15 14.24Q323.15 14.11 323.17 13.92L323.17 13.92L323.17 13.92Q323.19 13.73 323.25 13.42L323.25 13.42L323.25 13.42Q323.30 13.10 323.39 12.66L323.39 12.66L323.39 12.66Q323.48 12.21 323.62 11.58L323.62 11.58L323.62 11.58Q323.65 11.44 323.75 11.13L323.75 11.13L323.75 11.13Q323.85 10.82 324.01 10.48L324.01 10.48L324.01 10.48Q324.17 10.14 324.40 9.81L324.40 9.81L324.40 9.81Q324.63 9.49 324.95 9.34L324.95 9.34L324.95 9.34Q325.19 9.39 325.58 9.63L325.58 9.63L325.58 9.63Q325.98 9.86 326.26 10.26L326.26 10.26L326.26 10.26Q325.93 10.63 325.72 10.99L325.72 10.99L325.72 10.99Q325.50 11.35 325.32 11.75L325.32 11.75L325.32 11.75Q325.15 12.14 325.00 12.56L325.00 12.56L325.00 12.56Q324.86 12.98 324.67 13.44L324.67 13.44L324.67 13.44Q324.52 13.83 324.39 14.25L324.39 14.25L324.39 14.25Q324.27 14.66 324.25 14.97L324.25 14.97L324.25 14.97Q324.25 15.22 324.25 15.32L324.25 15.32L324.25 15.32Q324.24 15.43 324.17 15.43L324.17 15.43L324.17 15.43Q324.11 15.43 323.95 15.36L323.95 15.36L323.95 15.36Q323.78 15.29 323.60 15.14L323.60 15.14L323.60 15.14Q323.43 14.99 323.29 14.77L323.29 14.77L323.29 14.77Q323.15 14.55 323.15 14.24ZM325.82 8.16L325.82 8.16L325.82 8.16Q325.82 8.08 325.86 7.91L325.86 7.91L325.86 7.91Q325.79 7.84 325.74 7.70L325.74 7.70L325.74 7.70Q325.70 7.56 325.70 7.45L325.70 7.45L325.70 7.45Q325.70 7.32 325.73 7.11L325.73 7.11L325.73 7.11Q325.77 6.89 325.82 6.64L325.82 6.64L325.82 6.64Q325.88 6.38 325.96 6.11L325.96 6.11L325.96 6.11Q326.05 5.84 326.13 5.61L326.13 5.61L326.13 5.61Q326.30 5.61 326.54 5.71L326.54 5.71L326.54 5.71Q326.79 5.80 327.04 5.94L327.04 5.94L327.04 5.94Q327.29 6.09 327.50 6.27L327.50 6.27L327.50 6.27Q327.71 6.44 327.82 6.59L327.82 6.59L327.82 6.59Q327.67 6.75 327.42 7.02L327.42 7.02L327.42 7.02Q327.17 7.29 326.93 7.59L326.93 7.59L326.93 7.59Q326.69 7.90 326.49 8.16L326.49 8.16L326.49 8.16Q326.30 8.43 326.24 8.54L326.24 8.54L326.24 8.54Q326.07 8.51 325.95 8.39L325.95 8.39L325.95 8.39Q325.82 8.27 325.82 8.16ZM335.09 15.67L335.09 15.67L335.09 15.67Q334.29 15.58 333.82 14.97L333.82 14.97L333.82 14.97Q333.34 14.35 333.34 13.40L333.34 13.40L333.34 13.40Q333.34 12.84 333.51 12.24L333.51 12.24L333.51 12.24Q333.68 11.63 333.98 11.07L333.98 11.07L333.98 11.07Q334.29 10.50 334.71 10.00L334.71 10.00L334.71 10.00Q335.13 9.49 335.62 9.13L335.62 9.13L335.62 9.13Q336.39 8.55 337.06 8.55L337.06 8.55L337.06 8.55Q337.51 8.79 337.95 9.55L337.95 9.55L337.95 9.55Q338.02 9.55 338.07 9.54L338.07 9.54L338.07 9.54Q338.13 9.53 338.20 9.53L338.20 9.53L338.20 9.53Q338.94 9.53 338.94 10.85L338.94 10.85L338.94 10.85Q338.94 11.73 338.65 12.52L338.65 12.52L338.65 12.52Q338.37 13.31 337.85 13.96L337.85 13.96L337.85 13.96Q337.34 14.60 336.64 15.04L336.64 15.04L336.64 15.04Q335.93 15.48 335.09 15.67ZM335.80 11.26L335.80 11.26L335.80 11.26Q335.57 11.58 335.36 11.96L335.36 11.96L335.36 11.96Q335.15 12.33 334.99 12.72L334.99 12.72L334.99 12.72Q334.84 13.10 334.75 13.46L334.75 13.46L334.75 13.46Q334.67 13.82 334.67 14.10L334.67 14.10L334.67 14.10Q334.67 14.43 334.78 14.74L334.78 14.74L334.78 14.74Q334.89 15.05 335.03 15.09L335.03 15.09L335.03 15.09Q335.66 14.95 336.19 14.57L336.19 14.57L336.19 14.57Q336.71 14.18 337.10 13.61L337.10 13.61L337.10 13.61Q337.48 13.03 337.70 12.31L337.70 12.31L337.70 12.31Q337.92 11.58 337.92 10.75L337.92 10.75L337.92 10.75Q337.92 10.39 337.88 10.18L337.88 10.18L337.88 10.18Q337.83 9.97 337.74 9.81L337.74 9.81L337.74 9.81Q337.12 10.00 336.64 10.40L336.64 10.40L336.64 10.40Q336.15 10.81 335.80 11.26ZM348.88 8.39L348.88 8.39L348.88 8.39Q349.24 8.50 349.57 8.88L349.57 8.88L349.57 8.88Q349.89 9.27 350.04 9.73L350.04 9.73L350.04 9.73Q349.89 10.11 349.57 10.64L349.57 10.64L349.57 10.64Q349.24 11.17 348.92 11.72L348.92 11.72L348.92 11.72Q348.60 12.28 348.34 12.78L348.34 12.78L348.34 12.78Q348.08 13.27 348.04 13.59L348.04 13.59L348.04 13.59Q348.26 13.36 348.54 13.04L348.54 13.04L348.54 13.04Q348.81 12.73 349.07 12.41L349.07 12.41L349.07 12.41Q349.33 12.10 349.55 11.84L349.55 11.84L349.55 11.84Q349.78 11.58 349.90 11.45L349.90 11.45L349.90 11.45Q350.17 11.17 350.53 10.80L350.53 10.80L350.53 10.80Q350.90 10.43 351.29 10.10L351.29 10.10L351.29 10.10Q351.69 9.77 352.10 9.54L352.10 9.54L352.10 9.54Q352.51 9.31 352.84 9.31L352.84 9.31L352.84 9.31Q353.21 9.31 353.45 9.55L353.45 9.55L353.45 9.55Q353.70 9.80 353.84 10.07L353.84 10.07L353.84 10.07Q353.84 10.09 353.73 10.14L353.73 10.14L353.73 10.14Q353.63 10.19 353.43 10.42L353.43 10.42L353.43 10.42Q353.23 10.67 352.99 11.11L352.99 11.11L352.99 11.11Q352.74 11.55 352.51 12.06L352.51 12.06L352.51 12.06Q352.28 12.57 352.13 13.10L352.13 13.10L352.13 13.10Q351.97 13.64 351.97 14.07L351.97 14.07L351.97 14.07Q351.97 14.42 352.06 14.52L352.06 14.52L352.06 14.52Q352.16 14.62 352.32 14.62L352.32 14.62L352.32 14.62Q352.48 14.62 352.65 14.55L352.65 14.55L352.65 14.55Q352.81 14.48 352.91 14.48L352.91 14.48L352.91 14.48Q352.97 14.50 353.00 14.60L353.00 14.60L353.00 14.60Q353.04 14.69 353.04 14.76L353.04 14.76L353.04 14.76Q352.93 14.85 352.77 14.95L352.77 14.95L352.77 14.95Q352.62 15.05 352.45 15.13L352.45 15.13L352.45 15.13Q352.28 15.22 352.12 15.27L352.12 15.27L352.12 15.27Q351.96 15.33 351.83 15.33L351.83 15.33L351.83 15.33Q351.43 15.33 351.17 15.21L351.17 15.21L351.17 15.21Q350.91 15.09 350.76 14.90L350.76 14.90L350.76 14.90Q350.62 14.70 350.56 14.43L350.56 14.43L350.56 14.43Q350.50 14.15 350.50 13.85L350.50 13.85L350.50 13.85Q350.50 13.68 350.53 13.47L350.53 13.47L350.53 13.47Q350.56 13.26 350.64 12.97L350.64 12.97L350.64 12.97Q350.73 12.68 350.88 12.29L350.88 12.29L350.88 12.29Q351.04 11.89 351.27 11.33L351.27 11.33L351.27 11.33Q351.25 11.33 350.90 11.52L350.90 11.52L350.90 11.52Q350.55 11.72 350.14 12.12L350.14 12.12L350.14 12.12Q349.48 12.75 348.96 13.37L348.96 13.37L348.96 13.37Q348.43 13.99 347.89 14.74L347.89 14.74L347.89 14.74Q347.58 15.18 347.35 15.48L347.35 15.48L347.35 15.48Q347.12 15.78 346.95 15.88L346.95 15.88L346.95 15.88Q346.65 15.71 346.51 15.41L346.51 15.41L346.51 15.41Q346.37 15.11 346.30 14.78L346.30 14.78L346.30 14.78Q346.30 14.52 346.38 14.11L346.38 14.11L346.38 14.11Q346.46 13.71 346.59 13.21L346.59 13.21L346.59 13.21Q346.72 12.71 346.92 12.17L346.92 12.17L346.92 12.17Q347.12 11.62 347.35 11.07L347.35 11.07L347.35 11.07Q347.89 9.84 348.33 9.14L348.33 9.14L348.33 9.14Q348.77 8.44 348.88 8.39Z"></path></g></svg>